{"title":"World s Greatest Dad (2009)(MPEG-4)(IPOD)(NL SUBS) 2Lions-Team","uid":5151562,"size":1207263353,"categoryP":"video","categoryS":"handheld","magnet":"?xt=urn:btih:4eddef8b6d23ee8846d2b7ac39abe7ff9c6ab657&amp;dn=World+s+Greatest+Dad+%282009%29%28MPEG-4%29%28IPOD%29%28NL+SUBS%29+2Lions-Team&amp;tr=udp%3A%2F%2Ftracker.openbittorrent.com%3A80&amp;tr=udp%3A%2F%2Fopen.demonii.com%3A1337&amp;tr=udp%3A%2F%2Ftracker.coppersurfer.tk%3A6969&amp;tr=udp%3A%2F%2Fexodus.desync.com%3A6969","seeders":0,"leechers":0,"uploader":"Pioen","files":-1,"time":1257592873,"description":"World s Greatest Dad (2009) MPEG-4 (IPOD)\n\nVerenigde Staten\nKomedie\n99 minuten\n\ngeregisseerd door Bob Goldthwait\nmet Robin Williams, Daryl Sabara en Tom Kenny\n\nHet verhaal volgt Lance (Williams), een docent literatuur aan een hoge school, die de dood van zijn zoon (Sabara) door een uit de hand gelopen masturbatiestandje moet overwinnen. Hij schrijft een nep zelfmoordbrief, die zonder zijn toestemming wordt gepubliceerd en een heel eigen leven gaat leiden. Lance besluit daarop zijn eigen schrijverscarriÃƒÂ¨re nieuw leven in te blazen door een nepdagboek te schrijven, dat hij toeschrijft aan zijn overleden zoon.\n\nRobin Williams stars as Lance Clayton, a man who has learned to settle.  He dreamed of being a rich and famous writer, but has only managed to make it as a high school poetry teacher.  His only son Kyle (Daryl Sabara) is an insufferable jackass who won't give his father the time of day.  He is dating Claire (Alexie Gilmore), the school's adorable art teacher, but she doesn't want to get serious -- or even acknowledge publicly that they are dating.   Then, in the wake of a freak accident, Lance suffers the worst tragedy and greatest opportunity of his life. He is suddenly faced with the possibility of all the fame, fortune and popularity he ever dreamed of, if he can only live with the knowledge of how he got there. Written by\n\n\nBron : R5 (NTSC)\naudio : English\nSubs : Dutch (hardcoded)\n\nFormat                           : MPEG-4\nFormat profile                   : Base Media\nCodec ID                         : isom\nFile size                        : 1.12 GiB\nDuration                         : 1h 38mn\nOverall bit rate                 : 1 633 Kbps\n\n\nVideo\nID                               : 1\nFormat                           : MPEG-4 Visual\nFormat profile                   : Simple@L1\nFormat settings, BVOP            : No\nFormat settings, QPel            : No\nFormat settings, GMC             : No warppoints\nFormat settings, Matrix          : Default (H.263)\nCodec ID                         : 20\nDuration                         : 1h 38mn\nBit rate mode                    : Variable\nBit rate                         : 1 500 Kbps\nWidth                            : 720 pixels\nHeight                           : 406 pixels\nDisplay aspect ratio             : 16/9\nFrame rate mode                  : Constant\nFrame rate                       : 23.976 fps\nResolution                       : 24 bits\nColorimetry                      : 4:2:0\nScan type                        : Progressive\nBits/(Pixel*Frame)               : 0.214\nStream size                      : 1.03 GiB (92%)\nWriting library                  : Lavc51.40.4\n\n\nAudio\nID                               : 2\nFormat                           : AAC\nFormat/Info                      : Advanced Audio Codec\nFormat version                   : Version 4\nFormat profile                   : LC\nFormat settings, SBR             : No\nCodec ID                         : 40\nDuration                         : 1h 38mn\nBit rate mode                    : Variable\nBit rate                         : 128 Kbps\nChannel(s)                       : 2 channels\nChannel positions                : L R\nSampling rate                    : 48.0 KHz\nResolution                       : 16 bits\nStream size                      : 90.2 MiB (8%)\n\n\n &lt;a href=&quot;\nhttp://www.moviemeter.nl/film/54509&quot; rel=&quot;nofollow&quot; target=&quot;_NEW&quot;&gt;\nhttp://www.moviemeter.nl/film/54509&lt;/a&gt; &lt;a href=&quot;\nhttp://www.imdb.com/title/tt1262981&quot; rel=&quot;nofollow&quot; target=&quot;_NEW&quot;&gt;\nhttp://www.imdb.com/title/tt1262981&lt;/a&gt;\n\n***************************************** \n\nBrought to you by \npioen \n2Lions Team \n\n\n\nmeer zien?? \nKom dan eens kijken op ons forum \n   &lt;a href=&quot;\nhttp://www.2lions.ons-forum.nl&quot; rel=&quot;nofollow&quot; target=&quot;_NEW&quot;&gt;\nhttp://www.2lions.ons-forum.nl&lt;/a&gt; \n\n2Lions-Team for all your Dutch MOVIES and more \n\n***************************************** \n\nDON T HIT AND RUN Niet gelijk afhaken als de film binnen is blijf seeden.","torrent":{"xt":"urn:btih:4eddef8b6d23ee8846d2b7ac39abe7ff9c6ab657","amp;dn":"World+s+Greatest+Dad+%282009%29%28MPEG-4%29%28IPOD%29%28NL+SUBS%29+2Lions-Team","amp;tr":["udp%3A%2F%2Ftracker.openbittorrent.com%3A80","udp%3A%2F%2Fopen.demonii.com%3A1337","udp%3A%2F%2Ftracker.coppersurfer.tk%3A6969","udp%3A%2F%2Fexodus.desync.com%3A6969"],"infoHash":"4eddef8b6d23ee8846d2b7ac39abe7ff9c6ab657","infoHashBuffer":{"type":"Buffer","data":[78,221,239,139,109,35,238,136,70,210,183,172,57,171,231,255,156,106,182,87]},"announce":[],"urlList":[]}}